<svg xmlns="http://www.w3.org/2000/svg" viewBox="0 0 140 32"><g fill="none"><g fill-rule="evenodd" clip-path="url(#a)" clip-rule="evenodd"><path fill="#F18700" d="M15.885 24.71c-1.033-.428-1.941-.41-2.903-.018-.16.071-.32.142-.48.231-.517.232-1.016.375-1.55.054a7 7 0 0 1-.231-.143c-.374-.213-.57-.32-.82-.463-.106-.053-.231-.142-.445-.25a.415.415 0 0 0-.587.161l-.321.552-.32.553a.416.416 0 0 0 .16.587c.801.464.676.392 1.496.856.534.32.676.801.73 1.371a3.78 3.78 0 0 0 1.905 3.296 3.87 3.87 0 0 0 2.903.374 3.82 3.82 0 0 0 2.03-1.354c.107-.142.196-.285.285-.427a3.84 3.84 0 0 0 .374-2.886 3.83 3.83 0 0 0-1.78-2.316c-.161-.054-.303-.125-.446-.178m4.559-10.404a6.4 6.4 0 0 0-.605-1.443 6.6 6.6 0 0 0-.944-1.248l.249-1.371c.018-.143-.036-.285-.16-.357l-1.585-.908a.35.35 0 0 0-.41.035l-1.068.91a6.3 6.3 0 0 0-3.099 0l-1.05-.892a.35.35 0 0 0-.41-.035l-1.585.908c-.125.071-.196.232-.16.357l.249 1.371a6.36 6.36 0 0 0-1.55 2.673l-1.3.463a.365.365 0 0 0-.231.338v1.817c0 .143.089.285.232.321l1.3.463c.142.5.338.98.605 1.443s.588.873.944 1.247l-.25 1.372a.35.35 0 0 0 .179.374l.16.09h.018l.249.142 1.158.677a.35.35 0 0 0 .391-.036l1.051-.89a6.3 6.3 0 0 0 3.099 0l1.05.89a.35.35 0 0 0 .392.036l1.585-.909a.35.35 0 0 0 .178-.374l-.25-1.372a6.36 6.36 0 0 0 1.55-2.672l1.3-.463a.34.34 0 0 0 .232-.32v-1.818a.365.365 0 0 0-.232-.338zm-2.92-.107a3.612 3.612 0 1 1-4.933-1.319c1.727-.997 3.935-.392 4.932 1.319M6.125 12.952c-.125.089-.25.178-.392.267-.908.534-1.94.623-2.885.374a3.83 3.83 0 0 1-2.315-1.781 3.83 3.83 0 0 1-.392-2.904 3.78 3.78 0 0 1 1.781-2.316 3.83 3.83 0 0 1 2.885-.375c.32.09.624.214.926.375.517.231 1.015.374 1.55.053.801-.463.676-.392 1.495-.855a.415.415 0 0 1 .588.16l.32.553.321.552a.42.42 0 0 1-.16.588 8 8 0 0 1-.445.25c-.25.142-.445.249-.82.462-.07.036-.142.09-.23.143-.535.32-.678.802-.731 1.372 0 .178-.018.356-.036.534-.142 1.069-.587 1.87-1.46 2.548M22.67 19.08c.125-.09.25-.178.392-.267a3.83 3.83 0 0 1 2.885-.374c.944.25 1.78.873 2.315 1.781.089.143.16.303.231.463.32.784.374 1.64.16 2.441a3.78 3.78 0 0 1-1.78 2.316 3.83 3.83 0 0 1-2.885.374 4.6 4.6 0 0 1-.926-.374c-.517-.232-1.015-.374-1.55-.053-.8.463-.676.392-1.495.855a.415.415 0 0 1-.588-.16l-.32-.553-.321-.552a.415.415 0 0 1 .16-.588 5 5 0 0 1 .445-.25c.25-.142.445-.249.82-.463.07-.035.142-.089.231-.142.534-.32.677-.802.73-1.372 0-.178.018-.356.036-.534.142-1.087.57-1.889 1.46-2.548m1.264 4.311c.178.143.392.25.606.303.41.107.855.054 1.247-.16.142-.072.267-.178.356-.285.195-.196.338-.446.41-.713.106-.41.053-.855-.161-1.247a1.64 1.64 0 0 0-.997-.766 1.7 1.7 0 0 0-1.247.16 1.64 1.64 0 0 0-.766.998c-.107.41-.053.855.16 1.247.107.196.232.356.392.463M4.862 8.623a1.6 1.6 0 0 0-.606-.303 1.7 1.7 0 0 0-1.246.16c-.143.071-.25.178-.357.285a1.6 1.6 0 0 0-.41.713c-.106.41-.053.855.161 1.247.232.392.588.659.997.766s.855.053 1.247-.16c.392-.232.659-.588.766-.998s.053-.855-.16-1.247a2 2 0 0 0-.392-.463m2.742 13.022c.018.16.036.321.036.481a3.78 3.78 0 0 1-1.122 2.69 3.78 3.78 0 0 1-2.69 1.123c-.177 0-.338-.018-.516-.036a3.73 3.73 0 0 1-2.19-1.086 3.784 3.784 0 0 1 0-5.38c.231-.232.499-.446.783-.606.464-.339.82-.695.82-1.319v-1.728c0-.231.196-.427.427-.427h1.282c.232 0 .428.196.428.427v1.728c0 .624.356.98.819 1.319.16.089.303.196.445.302.873.624 1.336 1.408 1.478 2.512m13.57-11.277a4 4 0 0 1-.035-.48c0-1.052.427-1.996 1.121-2.69a3.78 3.78 0 0 1 2.69-1.123c.178 0 .338.018.516.036a3.73 3.73 0 0 1 2.19 1.086 3.784 3.784 0 0 1 0 5.38 3.7 3.7 0 0 1-.783.606c-.463.339-.82.695-.82 1.319v1.728a.433.433 0 0 1-.427.427h-1.282a.433.433 0 0 1-.427-.427V14.5c0-.623-.357-.98-.82-1.318-.16-.089-.302-.196-.445-.303-.855-.623-1.335-1.407-1.478-2.512m4.381 1.07c.214-.09.41-.214.57-.375a1.63 1.63 0 0 0 .48-1.158c0-.16-.017-.303-.07-.463a1.8 1.8 0 0 0-.41-.713 1.63 1.63 0 0 0-1.158-.48 1.64 1.64 0 0 0-1.656 1.638c0 .464.178.873.48 1.158a1.63 1.63 0 0 0 1.159.481c.231.018.427-.018.605-.089M3.223 20.575c-.213.09-.41.214-.57.375a1.63 1.63 0 0 0-.48 1.158c0 .16.017.302.07.463.072.267.232.516.41.712a1.64 1.64 0 0 0 1.176.481 1.57 1.57 0 0 0 1.157-.48 1.63 1.63 0 0 0 .481-1.159 1.57 1.57 0 0 0-.48-1.158 1.63 1.63 0 0 0-1.158-.48 1.4 1.4 0 0 0-.606.088M14.39 7.625h.249a3.7 3.7 0 0 0 1.122-.285c.16-.071.321-.143.481-.232.267-.125.517-.214.766-.231h.089c.214 0 .427.053.659.178.089.053.178.107.231.142.374.214.57.32.82.463.106.054.231.143.445.25.213.125.48.053.587-.16l.321-.553.32-.552a.415.415 0 0 0-.16-.588l-.124-.071c-.018 0-.018-.018-.036-.018-.801-.463-.534-.303-1.336-.766-.534-.32-.676-.802-.73-1.372A3.78 3.78 0 0 0 16.188.516 3.9 3.9 0 0 0 14.282 0h-.285a4 4 0 0 0-.64.107 3.82 3.82 0 0 0-2.03 1.354 6 6 0 0 0-.286.427 3.84 3.84 0 0 0-.374 2.886c.25.945.873 1.782 1.781 2.316l.428.214c.552.232 1.032.32 1.513.32m1.639-3.563a2.2 2.2 0 0 1-.196.57c-.232.392-.588.66-.998.766l-.267.053h-.125c-.284 0-.57-.07-.837-.231a1.64 1.64 0 0 1-.765-.998A1.7 1.7 0 0 1 13 2.975c.232-.392.588-.66.997-.766l.268-.053h.195c.143 0 .285.017.41.053.142.036.285.09.427.178.392.232.66.588.766.998-.018.214 0 .445-.035.677m-3.26 23.908c.036-.196.107-.392.196-.57.232-.392.588-.66.998-.766a1.7 1.7 0 0 1 1.246.16c.392.232.66.588.766.998.107.41.053.855-.16 1.247a1.64 1.64 0 0 1-.998.766 1.6 1.6 0 0 1-.819 0 1.5 1.5 0 0 1-.427-.178 1.64 1.64 0 0 1-.766-.998c-.071-.196-.071-.428-.035-.66"></path><path fill="#fff" d="M35.688 24.282h2.707V12.934l5.075 11.348h1.888l5.058-11.348v11.348h2.706V7.732H50.22l-5.788 12.987-5.806-12.987h-2.92v16.55zm103.431-8.302c0-4.952-3.74-8.462-8.459-8.462-4.666 0-8.459 3.51-8.459 8.462 0 4.97 3.793 8.48 8.459 8.48 4.737 0 8.459-3.51 8.459-8.48m-14.122 0c0-3.741 2.386-6.075 5.663-6.075 3.295 0 5.663 2.334 5.663 6.075s-2.386 6.129-5.663 6.129c-3.277-.018-5.663-2.388-5.663-6.129M110.18 9.94h4.435v14.342h2.707V9.941h4.398V7.73h-11.558v2.21zm-17.399 6.04c0 4.97 3.793 8.462 8.46 8.462 3.454 0 6.428-1.71 7.693-4.952h-3.259c-.873 1.763-2.458 2.6-4.434 2.6-3.295 0-5.663-2.35-5.663-6.092s2.386-6.075 5.663-6.075c1.976 0 3.543.837 4.434 2.601h3.259c-1.265-3.242-4.239-4.97-7.693-4.97-4.667-.036-8.46 3.474-8.46 8.426m-15.493 1.693c0 4.044 2.743 6.84 6.144 6.84 2.19 0 3.758-1.05 4.595-2.173v1.96h2.742V11.17h-2.742v1.906c-.801-1.069-2.333-2.12-4.541-2.12-3.455 0-6.198 2.655-6.198 6.717m10.739.035c0 2.833-1.924 4.436-3.971 4.436-2.031 0-3.972-1.639-3.972-4.471 0-2.833 1.959-4.365 3.972-4.365 2.047 0 3.97 1.603 3.97 4.4m-17.488 2.94c0 2.672 1.46 3.652 3.793 3.652h2.137v-2.263h-1.674c-1.14 0-1.531-.41-1.531-1.39V13.38h3.188v-2.21h-3.188V7.91H70.52v3.26h-1.55v2.21h1.55v7.268zm-9.1-7.411c2.03 0 3.615 1.282 3.668 3.313h-7.265c.285-2.084 1.763-3.313 3.597-3.313m6.143 7.144h-2.938c-.498 1.033-1.424 1.834-3.098 1.834-1.995 0-3.544-1.318-3.74-3.474h10.026a8.3 8.3 0 0 0 .089-1.336c0-3.866-2.636-6.449-6.375-6.449-3.883 0-6.554 2.637-6.554 6.77 0 4.115 2.778 6.788 6.554 6.788 3.223 0 5.307-1.835 6.036-4.133"></path></g><defs><clipPath id="a"><path fill="#fff" d="M0 0h139.467v32H0z"></path></clipPath></defs></g></svg>